<?xml version="1.0" encoding="UTF-8"?>
<!DOCTYPE svg PUBLIC "-//W3C//DTD SVG 1.1//EN" "http://www.w3.org/Graphics/SVG/1.1/DTD/svg11.dtd">
<!-- Creator: CorelDRAW X8 -->
<svg xmlns="http://www.w3.org/2000/svg" xml:space="preserve" width="21.6747mm" height="21.6748mm" version="1.1" style="shape-rendering:geometricPrecision; text-rendering:geometricPrecision; image-rendering:optimizeQuality; fill-rule:evenodd; clip-rule:evenodd"
viewBox="0 0 655 655"
 xmlns:xlink="http://www.w3.org/1999/xlink">
 <defs>
  <style type="text/css">
   <![CDATA[
    .fil0 {fill:none}
    .fil1 {fill:#1890FF}
   ]]>
  </style>
 </defs>
 <g id="图层_x0020_1">
  <metadata id="CorelCorpID_0Corel-Layer"/>
  <rect class="fil0" width="655" height="655"/>
  <g id="_2354599186416">
   <path class="fil1" d="M451 512c15,4 26,18 26,34 0,20 -16,35 -35,35l-6 0c-80,-1 -152,-86 -152,-189l0 -2c0,-94 67,-172 155,-191 -22,-37 -63,-62 -109,-62l-2 0c-70,0 -127,57 -127,127l0 288c0,19 -15,34 -34,34 -18,0 -33,-15 -33,-34 0,-96 0,-192 0,-288 0,-107 87,-195 194,-195l2 0c96,0 176,71 192,163 2,18 -11,29 -25,30 -145,3 -193,205 -46,250z"/>
   <circle class="fil1" cx="468" cy="392" r="54"/>
  </g>
 </g>
</svg>
