<?xml version="1.0" encoding="UTF-8"?>
<!DOCTYPE svg PUBLIC "-//W3C//DTD SVG 1.1//EN" "http://www.w3.org/Graphics/SVG/1.1/DTD/svg11.dtd">
<!-- Creator: CorelDRAW X8 -->
<svg xmlns="http://www.w3.org/2000/svg" xml:space="preserve" width="21.6747mm" height="21.6748mm" version="1.1" style="shape-rendering:geometricPrecision; text-rendering:geometricPrecision; image-rendering:optimizeQuality; fill-rule:evenodd; clip-rule:evenodd"
viewBox="0 0 1852 1852"
 xmlns:xlink="http://www.w3.org/1999/xlink">
 <defs>
  <style type="text/css">
   <![CDATA[
    .fil0 {fill:#1890FF}
    .fil1 {fill:white}
   ]]>
  </style>
 </defs>
 <g id="图层_x0020_1">
  <metadata id="CorelCorpID_0Corel-Layer"/>
  <path class="fil0" d="M506 0l840 0c278,0 506,228 506,506l0 840c0,278 -228,506 -506,506l-840 0c-278,0 -506,-228 -506,-506l0 -840c0,-278 228,-506 506,-506z"/>
  <g id="_2320115980320">
   <path class="fil1" d="M1275 1447c42,12 73,50 73,96 0,55 -44,100 -99,100l-16 0c-226,-5 -429,-245 -429,-537l0 -5c0,-264 188,-486 437,-538 -63,-105 -178,-177 -310,-177l-3 0c-198,0 -360,162 -360,360l0 815c0,52 -43,95 -95,95 -53,0 -96,-43 -96,-95 0,-272 1,-544 1,-815 0,-303 247,-550 549,-550l5 0c272,0 499,199 542,459 6,51 -30,83 -70,86 -408,7 -545,577 -129,706z"/>
   <circle class="fil1" cx="1322" cy="1107" r="153"/>
  </g>
 </g>
</svg>
