<?xml version="1.0" encoding="UTF-8"?>
<!DOCTYPE svg PUBLIC "-//W3C//DTD SVG 1.1//EN" "http://www.w3.org/Graphics/SVG/1.1/DTD/svg11.dtd">
<!-- Creator: CorelDRAW X8 -->
<svg xmlns="http://www.w3.org/2000/svg" xml:space="preserve" width="21.6747mm" height="21.6748mm" version="1.1" style="shape-rendering:geometricPrecision; text-rendering:geometricPrecision; image-rendering:optimizeQuality; fill-rule:evenodd; clip-rule:evenodd"
viewBox="0 0 397 397"
 xmlns:xlink="http://www.w3.org/1999/xlink">
 <defs>
  <style type="text/css">
   <![CDATA[
    .fil0 {fill:none}
    .fil1 {fill:white}
   ]]>
  </style>
 </defs>
 <g id="图层_x0020_1">
  <metadata id="CorelCorpID_0Corel-Layer"/>
  <rect class="fil0" width="397" height="397"/>
  <g id="_2354599185680">
   <path class="fil1" d="M273 310c9,2 16,11 16,21 0,11 -10,21 -22,21l-3 0c-48,-1 -92,-53 -92,-115l0 -1c0,-57 40,-104 94,-115 -14,-23 -38,-38 -66,-38l-1 0c-43,0 -77,34 -77,77l0 174c0,12 -9,21 -21,21 -11,0 -20,-9 -20,-21 0,-58 0,-116 0,-174 0,-65 53,-118 118,-118l1 0c58,0 106,43 116,98 1,11 -7,18 -15,19 -88,1 -117,123 -28,151z"/>
   <circle class="fil1" cx="283" cy="237" r="33"/>
  </g>
 </g>
</svg>
